<svg xmlns="http://www.w3.org/2000/svg" viewBox="0 0 100 100">
  <circle cx="50" cy="50" r="48" fill="#162755"/>
  <circle cx="50" cy="50" r="20" fill="none" stroke="#C9A227" stroke-width="3"/>
  <circle cx="50" cy="50" r="4" fill="#C9A227"/>
  <!-- spokes -->
  <g stroke="#ffffff" stroke-width="1.5">
    <line x1="50" y1="30" x2="50" y2="70"/>
    <line x1="30" y1="50" x2="70" y2="50"/>
    <line x1="36" y1="36" x2="64" y2="64"/>
    <line x1="64" y1="36" x2="36" y2="64"/>
    <line x1="30" y1="43" x2="70" y2="57"/>
    <line x1="30" y1="57" x2="70" y2="43"/>
    <line x1="43" y1="30" x2="57" y2="70"/>
    <line x1="57" y1="30" x2="43" y2="70"/>
    <line x1="33" y1="40" x2="67" y2="60"/>
    <line x1="33" y1="60" x2="67" y2="40"/>
    <line x1="40" y1="33" x2="60" y2="67"/>
    <line x1="60" y1="33" x2="40" y2="67"/>
  </g>
  <!-- outer ring -->
  <circle cx="50" cy="50" r="38" fill="none" stroke="#C9A227" stroke-width="2"/>
</svg>